<?xml version="1.0" encoding="UTF-8"?><svg id="Layer_2" xmlns="http://www.w3.org/2000/svg" width="48.71" height="135.94" viewBox="0 0 48.71 135.94"><g id="Layer_1-2"><path d="M9.8,61.5c-.4,11.38,9.56,35.19,15.51,47.48,4.18,8.64,7.01,18.11,8.64,24.54.4,1.6,1.93,2.62,3.56,2.4l8.4-1.16c.89-.12,1.66-.59,2.17-1.3.52-.72.72-1.59.55-2.46-1.94-10.69-6.65-37.44-8.37-55.06-2.26-23.22-9.6-32.71-9.67-32.8-.27-.33-.4-.75-.38-1.17.74-13.09-1.98-26.59-3.78-35.52-.33-1.61-.62-3.07-.85-4.35-.29-1.55-1.9-2.47-3.38-1.92L1.66,7.76c-1.22.45-1.9,1.75-1.58,3.01,3.16,12.48,10.07,41.58,9.73,50.73Z"/></g></svg>