<?xml version="1.0" encoding="UTF-8"?><svg id="Layer_2" xmlns="http://www.w3.org/2000/svg" width="103.57" height="93.7" viewBox="0 0 103.57 93.7"><g id="Layer_1-2"><path d="M102.73,72.75c-.24-.7-.47-1.39-.7-2.08-.03-.11-.07-.22-.1-.32-.26-.79-.52-1.59-.76-2.38-.62-1.98-1.19-3.94-1.71-5.89-.1-.39-.21-.78-.3-1.16-.3-1.16-.59-2.33-.85-3.49-.09-.38-.17-.77-.26-1.16-.16-.72-.3-1.44-.44-2.16-.07-.37-.14-.73-.21-1.1-.24-1.29-.45-2.6-.63-3.89-.04-.31-.09-.61-.12-.92-.66-5.12-.87-10.23-.52-15.41.03-.5.08-1,.13-1.5,0-.07,0-.14.02-.21.02-.3.05-.6.09-.9.03-.38.08-.76.13-1.15,0-.09.02-.18.03-.27.05-.46.11-.91.18-1.37.03-.22.06-.44.1-.66.06-.41.12-.81.2-1.22.02-.12.03-.25.07-.38.07-.44.16-.88.24-1.32.03-.21.08-.41.13-.62.08-.39.16-.79.25-1.18.03-.17.07-.35.11-.52.1-.44.21-.88.32-1.32.04-.2.09-.39.15-.58.08-.32.16-.63.25-.95.09-.34.18-.68.28-1.02.16-.55.32-1.1.49-1.65.1-.35.21-.68.32-1.03.12-.38.25-.77.38-1.15.66-1.95-.36-4.07-2.28-4.81-7.49-2.88-14.84-6.3-19.81-8.85-.3-.15-.64-.16-.95-.03-.21.09-.43.18-.51.21-.36.14-.75.28-1.16.41-.22.07-.47.15-.71.22-.24.07-.49.14-.74.21-.45.13-.91.24-1.38.35-1.04.24-2.14.45-3.29.64-.46.09-.93.16-1.41.22-.59.09-1.17.16-1.78.24-.32.03-.64.08-.97.11-.33.04-.66.08-.98.11-.63.07-1.27.13-1.92.18-.72.07-1.46.12-2.19.16-.09,0-.2.02-.29.03-.55.03-1.1.07-1.65.09-.6.04-1.19.07-1.78.09h-.07c-.09,0-.19,0-.29,0-.5.03-.99.04-1.48.05-.49.02-.98.03-1.47.03-.38.02-.76.02-1.14.03-.38,0-.76,0-1.14-.03-.48,0-.97-.02-1.47-.03-.49,0-.98-.03-1.48-.05-.1,0-.2,0-.29,0h-.07c-.59-.03-1.18-.05-1.78-.09-.55-.03-1.1-.06-1.65-.09-.09,0-.2-.02-.29-.03-.73-.04-1.47-.09-2.19-.16-.65-.05-1.29-.11-1.92-.18-.33-.03-.66-.07-.98-.11-.33-.03-.65-.08-.97-.11-.6-.08-1.19-.16-1.78-.24-.47-.07-.95-.14-1.41-.22-1.15-.19-2.25-.4-3.29-.64-.47-.1-.93-.22-1.38-.35-.25-.07-.5-.14-.74-.21-.24-.07-.48-.15-.71-.22-.41-.13-.79-.27-1.16-.41-.08-.03-.3-.12-.51-.21-.31-.13-.65-.12-.95.03-4.97,2.55-12.32,5.97-19.81,8.85-1.92.74-2.94,2.86-2.28,4.81.13.39.26.77.38,1.15.11.35.22.68.32,1.03.17.55.34,1.1.49,1.65.1.34.2.68.28,1.02.09.32.17.63.25.95.05.19.1.38.15.58.11.44.22.88.32,1.32.04.17.08.35.11.52.09.4.17.79.25,1.18.05.21.09.41.13.62.09.44.17.88.24,1.32.03.13.05.26.07.38.08.41.14.81.2,1.22.04.22.07.45.1.66.07.46.13.91.18,1.37.02.09.03.17.03.27.05.39.09.77.13,1.15.03.3.07.6.09.9.02.07.02.14.02.21.05.5.09,1,.13,1.5.35,5.18.15,10.29-.52,15.41-.03.31-.08.61-.12.92-.18,1.29-.39,2.6-.63,3.89-.07.37-.14.73-.21,1.1-.14.72-.28,1.44-.44,2.16-.09.39-.17.78-.26,1.16-.26,1.16-.54,2.33-.85,3.49-.09.39-.2.78-.3,1.16-.52,1.95-1.09,3.91-1.71,5.89-.24.79-.5,1.59-.76,2.38-.03.1-.07.21-.1.32-.22.69-.46,1.38-.7,2.08-.27.8-.54,1.62-.84,2.43.28,2.72.7,5.5,1.23,8.25.54,2.8,1.14,5.71,1.74,8.66.19.94,1.02,1.61,1.97,1.61h93.68c.96,0,1.78-.67,1.97-1.61.6-2.95,1.2-5.86,1.74-8.66.53-2.75.94-5.53,1.23-8.25-.29-.81-.57-1.63-.84-2.43Z"/></g></svg>