<?xml version="1.0" encoding="UTF-8"?><svg id="Layer_2" xmlns="http://www.w3.org/2000/svg" width="36.01" height="104.23" viewBox="0 0 36.01 104.23"><g id="Layer_1-2"><path d="M4.65,70.65c1.28,7.4,2.48,14.39,3.16,20.21.44,3.78.85,8.26,1.24,13.32,1.24.09,4.21.12,11.09-.34,1.73-.11,3.18-1.37,3.55-3.06.66-3.05,1.47-6.58,2.42-10.67,2.81-12.17,6.32-27.33,8.4-42.56,2.67-19.66,1.19-35.88.07-43.79-.16-1.19-.79-2.23-1.78-2.92C32.04.28,31.16,0,30.25,0c-.29,0-.58.03-.86.09L8.99,4.1s-.09.02-.13.03c-.03,0-.08,0-.11.02l-6.37,1.25c-.83.16-1.42.9-1.41,1.74.11,9.1-.11,16.09-.68,20.78-1.25,10.27,1.73,27.52,4.36,42.74Z"/></g></svg>