<?xml version="1.0" encoding="UTF-8"?><svg id="Layer_2" xmlns="http://www.w3.org/2000/svg" width="42.3" height="43.03" viewBox="0 0 42.3 43.03"><g id="Layer_1-2"><path d="M42.3,7.15c0,1.02-.21,1.76-.38,3.74-.22,2.61-5.26,19.33-6.95,23.57-.77,1.92-1.79,3.74-3.27,5.2-.66.66-1.43,1.27-2.29,1.69-.47.35-.95.66-1.43.9-1.24.62-2.65.91-4.02.71-1.34-.19-2.77-.82-3.43-2.02-.16-.28-.41-.49-.72-.62l-.08-.03c-.57-.24-1.21-.12-1.67.28-.89.75-1.95,1.3-3.14,1.35-1.3.03-2.67-.48-3.3-1.69-.12-.23-.21-.48-.26-.74-.98.58-2.18.91-3.3.6-.65-.18-1.13-.54-1.43-1.03-.23-.36-.57-.63-.99-.72-1.44-.3-2.76-1.4-3.15-2.83-.12-.45-.16-.9-.11-1.32-.29-.04-.58-.13-.85-.26-1.34-.67-1.73-2.09-1.46-3.49.3-1.53,1.24-2.87,2.09-4.15.8-1.23,1.65-2.42,2.55-3.58,1.78-2.35,3.68-4.59,5.56-6.86,1.85-2.25,3.68-4.54,5.29-6.98,1.11-1.69,2.23-3.46,3.14-5.29.11-.22.17-.45.2-.69,0-.14.03-.28.03-.42.07-.89.77-1.6,1.65-1.67h.12l15.69-.79h.08c2.58.04,5.03,2.04,5.52,4.59.22,1.2.3,1.93.3,2.56Z"/></g></svg>