<?xml version="1.0" encoding="UTF-8"?><svg id="Layer_2" xmlns="http://www.w3.org/2000/svg" width="53.03" height="73.78" viewBox="0 0 53.03 73.78"><g id="Layer_1-2"><path d="M49.5,45.09c-.34,2-.65,4.42-.88,7.35,0,.03,0,.07-.01.1-1.57,8.56-8.24,17.56-18.14,20.66-2.73.78-5.23.8-7.96,0-9.89-3.09-16.57-12.1-18.14-20.65,0-.04-.01-.07-.01-.11-.21-3.13-.49-5.47-.82-7.33-.1-.55.36-1.04.96-1.04h44.05c.59,0,1.05.49.96,1.03ZM53,22.98c-.66-4.29-2.15-8.27-3.85-10.99-.05-.08-.1-.16-.16-.23C31.63-10.18,3.26,1.48.02,23c-.18,1.23.87,2.31,2.2,2.31h48.58c1.34,0,2.39-1.1,2.2-2.33Z"/></g></svg>