<?xml version="1.0" encoding="UTF-8"?><svg id="Layer_2" xmlns="http://www.w3.org/2000/svg" width="43.02" height="61.4" viewBox="0 0 43.02 61.4"><g id="Layer_1-2"><path d="M42.9,26.46c-.25,5.13-.51,9.58-1.12,17.61-.69,9.18-1.71,10.72-4.21,10.2-2.52-.53-1.2-13.07-1.05-15.37.21-3.14,0-5.44-.72-4.18-.74,1.25-1.79,18.61-2.82,22.89-1.05,4.29-4.3,4.81-5.12,1.47-.85-3.35,1.42-19.84,1.57-21.22.41-4.38-.22-5.12-.95-3.34-.72,1.78-1.78,26.34-6.16,26.87-4.4.52-2.31-8.58-1.67-12.65.62-4.08,1.04-10.45,1.14-11.71.29-3.75.86-5.56-.42-4.39-1.04.94-4.27,16.51-4.81,19.76-.51,3.24-1.33,7.45-4.49,6.58-2.88-.79-.79-8.36-.19-13.9.38-3.48,1.44-12.53,2.04-17.69.14-1.17-1.42-1.7-2.02-.69-.01.02-.03.05-.04.07-1.46,2.51-5.1,6.72-8.7,8.45-3.65,1.73-3.93-1.97-1.88-4.47,1.73-2.15,5.24-10.35,6.81-13.07,1.57-2.72,7.43-11.89,11.91-16.18,0-.02.03-.03.03-.03.95-.89,2.15-1.38,3.39-1.47.11.21.24.41.38.6,1.08,1.48,2.67,2.45,4.5,2.7l8.41,1.16c.31.04.61.06.92.06.41,0,.81-.04,1.2-.11,1.68-.31,3.29.8,3.46,2.5.5,4.96.95,12.4.6,19.55Z"/></g></svg>