<?xml version="1.0" encoding="UTF-8"?><svg id="Layer_2" xmlns="http://www.w3.org/2000/svg" width="53.61" height="64.73" viewBox="0 0 53.61 64.73"><g id="Layer_1-2"><path d="M2.52,25.31h48.58c1.34,0,2.39-1.1,2.2-2.33-.66-4.29-2.15-8.27-3.85-10.99-.05-.08-.1-.16-.16-.23C31.92-10.18,3.55,1.48.31,23c-.18,1.23.87,2.31,2.2,2.31ZM4.64,52.43c-.21-3.13-.49-5.47-.82-7.33-.1-.55.36-1.04.96-1.04h44.05c.59,0,1.05.48.96,1.03-.35,2-.65,4.42-.89,7.34,0,.04,0,.07-.01.1-.78,4.22-2.8,8.53-5.81,12.2H10.47c-3.03-3.66-5.05-7.98-5.82-12.19-.01-.04-.01-.07-.01-.11ZM.38,32.76c.83,3.43,1.82,5.02,2.68,7.8.14.48.63.82,1.17.82h45.14c.54,0,1.03-.34,1.17-.82.85-2.78,1.84-4.37,2.68-7.8,0-.04.02-.07.02-.11.2-1.18.32-2.33.36-3.47.03-.65-.53-1.2-1.23-1.2H1.23C.53,27.98-.03,28.53,0,29.18c.05,1.14.16,2.3.36,3.47,0,.04,0,.07.02.11Z"/></g></svg>