<?xml version="1.0" encoding="UTF-8"?><svg id="Layer_2" xmlns="http://www.w3.org/2000/svg" width="77.55" height="100.92" viewBox="0 0 77.55 100.92"><g id="Layer_1-2"><path d="M9.1,64.22c-7.33-2.1-11.46-22.47-7.66-24.42.99-.51,1.8-.68,2.47-.66.32,0,.6.05.86.12,0,0,4.04,2,5.46,25.13-.38-.01-.76-.06-1.12-.17ZM10.62,29.33h56.3c1.55,0,2.77-1.27,2.55-2.7-.76-4.98-2.49-9.59-4.46-12.74-.06-.09-.12-.18-.19-.27C44.7-11.8,11.83,1.72,8.07,26.65c-.21,1.42,1.01,2.68,2.55,2.68ZM76.11,39.8c-.99-.51-1.8-.68-2.47-.66-.32,0-.6.05-.86.12,0,0-4.04,2-5.46,25.13.38-.01.76-.06,1.12-.17,7.33-2.1,11.46-22.47,7.66-24.42ZM56.89,75.89c3.92-4.43,6.52-9.79,7.48-15.01,0-.04.01-.08.01-.11.27-3.39.63-6.19,1.02-8.51.11-.63-.42-1.2-1.11-1.2H13.24c-.69,0-1.22.57-1.11,1.21.38,2.16.7,4.87.95,8.5,0,.04,0,.09.02.13.97,5.33,3.67,10.8,7.73,15.29-.67,8.53-7.02,21.38-13.13,24.72-.36.21,6.83-1.58,7.23-1.68,7.27-1.84,12.92-1.37,23.25-1.36h0c.1,0,.2,0,.3,0s.19,0,.29,0h0c10.36-.01,16.76-.48,24.03,1.36.4.1,7.59,1.89,7.23,1.68-6.17-3.38-12.59-16.49-13.15-25.01ZM8.15,37.98c.97,3.98,2.11,5.81,3.1,9.04.17.56.73.95,1.36.95h52.32c.62,0,1.19-.39,1.36-.95.99-3.22,2.14-5.06,3.1-9.04.01-.04.02-.08.02-.12.23-1.36.37-2.71.42-4.03.03-.75-.61-1.39-1.42-1.39H9.13c-.81,0-1.46.64-1.42,1.39.06,1.32.19,2.66.42,4.03,0,.04.01.08.02.12Z"/></g></svg>