<?xml version="1.0" encoding="UTF-8"?><svg id="Layer_2" xmlns="http://www.w3.org/2000/svg" width="105.83" height="56.4" viewBox="0 0 105.83 56.4"><g id="Layer_1-2"><path d="M101,3.15c-.05-.21-.1-.41-.14-.6-.35-1.5-1.69-2.55-3.22-2.55h-44.5c-.12,0-.22.1-.22.22C52.92.1,52.82,0,52.7,0H8.2c-1.54,0-2.87,1.05-3.22,2.55-.05.2-.09.4-.14.6C3.55,8.68,1.61,17.03,0,27.57c-.02.09.03.18.11.22l2.85,1.55,45.17,24.59s.08.04.11.07l4.37,2.37s.08.03.12.03c.1-.02.19-.1.19-.22,0,.11.09.2.19.22.04,0,.09,0,.12-.03l4.37-2.37s.08-.05.11-.07l45.17-24.59,2.85-1.55c.08-.03.13-.13.11-.22-1.6-10.54-3.55-18.89-4.83-24.43Z"/></g></svg>