<?xml version="1.0" encoding="UTF-8"?><svg id="Layer_2" xmlns="http://www.w3.org/2000/svg" width="33.5" height="60.17" viewBox="0 0 33.5 60.17"><g id="Layer_1-2"><path d="M33.46,27.54c0,.25,0,.51-.03.77,0,.33-.03.66-.04.99-.03.59-.07,1.18-.11,1.79-.06.75-.12,1.51-.21,2.28-.03.35-.07.69-.11,1.04-.16,1.41-.36,2.84-.6,4.31-.06.37-.12.74-.19,1.11-.32,1.86-.72,3.8-1.17,5.79-.09.4-.18.79-.28,1.2-.21.87-.43,1.76-.66,2.66-.17.66-.35,1.34-.54,2.02-.62,2.22-1.32,4.51-2.11,6.9v.02c-.45,1.37-1.94,2.09-3.29,1.59L1.68,51.72c-.99-.37-1.65-1.3-1.66-2.35-.07-6.22.07-16.67.07-16.75C1.18,9.02,13.3,4.49,26.41.26c1.16-.42,2.01-.53,2.71,1.33.41,1.12.8,2.25,1.17,3.4.09.3.19.6.28.9.29.97.57,1.94.82,2.93.1.39.21.79.29,1.18.04.15.08.3.11.45.08.35.16.69.23,1.04.1.48.21.97.29,1.45.08.4.16.8.22,1.21.03.15.06.3.08.46.09.52.17,1.04.24,1.56.09.59.16,1.18.22,1.78.05.44.09.89.13,1.34.04.4.08.8.1,1.21.03.45.07.9.09,1.35.03.59.06,1.18.07,1.78.03,1.29.03,2.59,0,3.93Z"/></g></svg>