<?xml version="1.0" encoding="UTF-8"?><svg id="Layer_2" xmlns="http://www.w3.org/2000/svg" width="103.27" height="97.08" viewBox="0 0 103.27 97.08"><g id="Layer_1-2"><path d="M51.8,97.07c17.58,0,35.17,0,46.84,0,3.57-.94,2.48-7.41,3.72-10.28,1.58-5.44,1.05-10.36-1.17-15.46-3.97-12.65-6.37-25.96-4.63-39.21.47-3.76,1.24-7.49,2.29-11.14.93-2.92,2.67-6.78-1.09-8.64C76.44,1.81,83.01.88,53.31,0c-.55,0-1.12.01-1.68.02-.56,0-1.12,0-1.68-.02C19.56.88,26.84,1.81,5.52,12.35c-3.76,1.86-2.02,5.72-1.09,8.64,1.04,3.65,1.82,7.38,2.29,11.14,1.73,13.25-.66,26.56-4.63,39.21-2.23,5.1-2.75,10.03-1.17,15.46,1.23,2.86.15,9.34,3.72,10.28,11.67,0,29.26,0,46.84,0"/></g></svg>